<svg id="Layer_1" data-name="Layer 1" xmlns="http://www.w3.org/2000/svg" xmlns:xlink="http://www.w3.org/1999/xlink" viewBox="0 0 400 400"><defs><style>.cls-1{fill:#2d383f;}.cls-2{fill:url(#linear-gradient);}.cls-3{fill:none;stroke:#2d383f;stroke-miterlimit:10;stroke-width:0.88px;}.cls-4{fill:url(#linear-gradient-2);}.cls-5{fill:#fff;}.cls-6{fill:url(#linear-gradient-3);}.cls-7{fill:url(#linear-gradient-4);}.cls-8{fill:url(#linear-gradient-5);}</style><linearGradient id="linear-gradient" x1="376.84" y1="105.61" x2="108.45" y2="306.37" gradientUnits="userSpaceOnUse"><stop offset="0" stop-color="#ef24a0"/><stop offset="1" stop-color="#73148a"/></linearGradient><linearGradient id="linear-gradient-2" x1="345.8" y1="64.11" x2="77.41" y2="264.87" xlink:href="#linear-gradient"/><linearGradient id="linear-gradient-3" x1="404.54" y1="142.64" x2="136.15" y2="343.4" xlink:href="#linear-gradient"/><linearGradient id="linear-gradient-4" x1="397.1" y1="132.69" x2="128.71" y2="333.46" xlink:href="#linear-gradient"/><linearGradient id="linear-gradient-5" x1="369.9" y1="166.1" x2="47.43" y2="407.31" xlink:href="#linear-gradient"/></defs><title>EGH_React_RxJS_Library-Purple</title><path class="cls-1" d="M338.66,206.81l-6-5.95-9.75-9.61-6.66-6.57,0-.05a389.18,389.18,0,0,0-36.89-29.35,391,391,0,0,0-10-60,2.27,2.27,0,0,0-2.41-1.7c-4.16.41-8.3.91-12.35,1.48a2.25,2.25,0,0,0-1.86,2.8A270.55,270.55,0,0,1,259,129.65c.05.34.1.69.14,1,.72,5.21,1.4,10.86,2.17,17.5-.92.21-3.06,2.38-8.1,2.27-2.28,0-5.82-2.36-7.37-3.91h0c-2.88-2.52-6.08-5-11.69-5l-1.09,0c-8.43.46-16.07,7.1-19.56,14.53-30.76,7.93-48.49,37.6-42.57,48.61,3,8.47,32.23,3.65,52.65-14.39h0c24.57,1.8,40.55,19.51,39.77,36.72,0,.25,0,.49,0,.74l-.66,13.2c-4.08,3.44-7.67,6.17-11,8.59l0,0-.12.08c-2.36,1.69-4.62,3.23-6.84,4.73l.16-.23c-12.67,8.42-24.14,15.41-35.62,22.09-21.58-10.48-51.19-27-70.31-39.74-.84-11.73-1.26-24.08-1.25-36.61a1.79,1.79,0,0,0-2.59-1.61q-6.91,3.43-13.28,7a1.8,1.8,0,0,0-.91,1.59c.07,5.8.2,11.58.45,17.28q-6.48-4.77-12.48-9.58a1.78,1.78,0,0,0-2.09-.1q-6,4-11.31,8.09a1.79,1.79,0,0,0,0,2.8q12.68,10.34,27.37,20.48c2.09,23.68,10.19,62,11.4,66l1.22,4.07c9.73,32.69,33,81.49,66.08,81.49,33.31,0,55.84-49.8,65.33-82.75,33.46,8.19,88.44,12.87,105.19-16.15C387.22,272.15,361.72,232.54,338.66,206.81ZM140.93,257.93c13.35,8.43,37.06,20.89,50.87,28a410.6,410.6,0,0,1-42.19,19.9C147,294.45,142.49,270.93,140.93,257.93Zm60.53,122.73c-15.22,0-35-24-47.92-63-.72-2.16-1.41-4.37-2.09-6.62a395.6,395.6,0,0,0,49.92-20,395.3,395.3,0,0,0,49.21,19.17C237.7,354.78,216.87,380.66,201.46,380.66ZM260.78,260c-1.55,11.84-3.56,23.22-6,33.94a359.17,359.17,0,0,1-33.93-12.63c13.09-6.89,27.75-15.89,40.33-23.85Zm20.1-82.72c10.09,7.65,21.5,17.65,30,25.54a267,267,0,0,1-30.34,26C281.28,213.25,281.62,192.87,280.89,177.26Zm76.5,112.93c-7.6,13.19-38.3,18.32-78.55,10-2.55-.54-5.18-1.13-7.84-1.77a401.63,401.63,0,0,0,8.34-52.69l41.57-33.33C353.1,245.92,365.09,276.83,357.39,290.18Z"/><path class="cls-1" d="M55.85,160.31a1.77,1.77,0,0,0,.33-2.25c-12.42-20.33-16.52-38.34-11-47.94C52.14,98.06,78.46,92.83,114,99a1.75,1.75,0,0,0,1.51-.45,116.49,116.49,0,0,1,13.14-10.7,1.78,1.78,0,0,0-.65-3.2C43,66.1-1.34,99.33,43.52,169.38a1.78,1.78,0,0,0,2.8.24Q50.85,164.78,55.85,160.31Z"/><path class="cls-1" d="M201.46,20.25c10.37,0,22.79,11.18,33.58,30.83a1.79,1.79,0,0,0,1.77.92q7.18-.86,14.1-1.37a1.78,1.78,0,0,0,1.47-2.57c-14.09-28.35-32-44.64-50.93-44.64-31.27,0-54.17,42.76-64.91,75.62a1.78,1.78,0,0,0,2.58,2.09,170.87,170.87,0,0,1,17-8.59,1.78,1.78,0,0,0,.93-1C169.69,40,187.61,20.25,201.46,20.25Z"/><path class="cls-2" d="M134.16,311.94c-50.9,16.31-69.51,2.92-72.87-.07,3.45,3.32,23,18.88,74.09,4.14Z"/><path class="cls-3" d="M201.46,380.66c-15.22,0-35-24-47.92-63-.72-2.16-1.41-4.37-2.09-6.62a395.58,395.58,0,0,0,49.92-20,395.31,395.31,0,0,0,49.21,19.17C237.7,354.78,216.87,380.66,201.46,380.66Z"/><path class="cls-4" d="M332.61,200.86c24.06-25.12,54.17-70,37.54-98.83-2.63-4.57-25.91-57.94-147-38.21-65,10.6-95.7,33.21-109.86,50.82a2,2,0,0,0,1.87,3.28c9-1.28,29.42-2.52,56,6,0,0-108.37,4.35-145.13,94.05a1.84,1.84,0,0,0,2.7,2.25,77.43,77.43,0,0,1,37.44-12.5s-59,54.17-25.62,102a1.32,1.32,0,0,0,2.38-1c-3.26-18.59-3.87-77.27,101.72-124a2.22,2.22,0,0,0-.29-4.16c-10.29-2.86-33.79-6.95-62.54,3.88,0,0,34.28-55.34,166-50.73a2.4,2.4,0,0,0,1.72-4.16c-8-7.42-27.2-22.23-57.71-28.9,0,0,133.74-42.47,163.13,10.09,1.85,3.31,14.13,28.58-32.15,80.49Z"/><circle class="cls-5" cx="204.55" cy="184.46" r="5.02" transform="translate(-31.67 42.81) rotate(-11.1)"/><path class="cls-6" d="M279.34,245.76c20-14.06,26.53-19.37,41.57-33.33l-10-9.64a392.67,392.67,0,0,1-30.34,26Z"/><path class="cls-7" d="M191.8,286S166,299.8,149.61,305.87l1.84,5.14a395.58,395.58,0,0,0,49.92-20Z"/><path class="cls-8" d="M262.71,241l-1.54,16.45s-23.68,14.9-35,21l-5.34,2.85-11.64-5c13.5-7.85,27-16.13,42.43-26.67Z"/></svg>